<?xml version="1.0" encoding="utf-8"?>
<!-- Generator: Adobe Illustrator 18.0.0, SVG Export Plug-In . SVG Version: 6.00 Build 0)  -->
<!DOCTYPE svg PUBLIC "-//W3C//DTD SVG 1.1//EN" "http://www.w3.org/Graphics/SVG/1.1/DTD/svg11.dtd">
<svg version="1.1" id="Layer_1" xmlns="http://www.w3.org/2000/svg" xmlns:xlink="http://www.w3.org/1999/xlink" x="0px" y="0px"
	 viewBox="0 0 35 40" style="enable-background:new 0 0 35 40;" xml:space="preserve">
<g>
	<g>
		<path d="M23.3,15l-8.1,8.1c-0.4,0.4-0.4,1,0,1.4l0.5,0.5c0.4,0.4,1,0.4,1.4,0l8.1-8.1c0.4-0.4,0.4-1,0-1.4L24.7,15
			C24.3,14.6,23.7,14.6,23.3,15z"/>
		<path d="M25.2,23.1L17,15c-0.4-0.4-1-0.4-1.4,0l-0.5,0.5c-0.4,0.4-0.4,1,0,1.4l8.1,8.1c0.4,0.4,1,0.4,1.4,0l0.5-0.5
			C25.6,24.1,25.6,23.5,25.2,23.1z"/>
	</g>
</g>
</svg>
