<?xml version="1.0" encoding="utf-8"?>
<!-- Generator: Adobe Illustrator 18.0.0, SVG Export Plug-In . SVG Version: 6.00 Build 0)  -->
<!DOCTYPE svg PUBLIC "-//W3C//DTD SVG 1.1//EN" "http://www.w3.org/Graphics/SVG/1.1/DTD/svg11.dtd">
<svg version="1.1" id="Layer_1" xmlns="http://www.w3.org/2000/svg" xmlns:xlink="http://www.w3.org/1999/xlink" x="0px" y="0px"
	 viewBox="0 0 40 40" style="enable-background:new 0 0 40 40;" xml:space="preserve">
<g>
	<g>
		<path d="M20,9.1C13.9,9.1,9.1,13.9,9.1,20c0,6.1,4.9,10.9,10.9,10.9c1,0,1.8-0.8,1.8-1.8c0-0.5-0.1-0.8-0.5-1.2
			c-0.2-0.4-0.5-0.7-0.5-1.2c0-1,0.8-1.8,1.8-1.8h2.2c3.4,0,6.1-2.7,6.1-6.1C30.9,13.4,26.1,9.1,20,9.1L20,9.1z M13.3,20
			c-1,0-1.8-0.8-1.8-1.8s0.8-1.8,1.8-1.8c1,0,1.8,0.8,1.8,1.8S14.3,20,13.3,20L13.3,20z M17,15.1c-1,0-1.8-0.8-1.8-1.8
			c0-1,0.8-1.8,1.8-1.8c1,0,1.8,0.8,1.8,1.8C18.8,14.3,17.9,15.1,17,15.1L17,15.1z M23,15.1c-1,0-1.8-0.8-1.8-1.8
			c0-1,0.8-1.8,1.8-1.8c1,0,1.8,0.8,1.8,1.8C24.9,14.3,24,15.1,23,15.1L23,15.1z M26.7,20c-1,0-1.8-0.8-1.8-1.8s0.9-1.8,1.8-1.8
			c1,0,1.8,0.8,1.8,1.8S27.7,20,26.7,20L26.7,20z"/>
	</g>
</g>
</svg>
