<?xml version="1.0" encoding="utf-8"?>
<!-- Generator: Adobe Illustrator 18.0.0, SVG Export Plug-In . SVG Version: 6.00 Build 0)  -->
<!DOCTYPE svg PUBLIC "-//W3C//DTD SVG 1.1//EN" "http://www.w3.org/Graphics/SVG/1.1/DTD/svg11.dtd">
<svg version="1.1" id="Layer_1" xmlns="http://www.w3.org/2000/svg" xmlns:xlink="http://www.w3.org/1999/xlink" x="0px" y="0px"
	 viewBox="0 0 22 22" style="enable-background:new 0 0 22 22;" xml:space="preserve">
<g>
	<path d="M10.5,1.1v1.6c-4.2,0.3-7.5,3.6-7.8,7.8H1.1c-0.3,0-0.5,0.2-0.5,0.5c0,0.3,0.2,0.5,0.5,0.5h1.6c0.3,4.2,3.6,7.5,7.8,7.8
		v1.6c0,0.3,0.2,0.5,0.5,0.5c0.3,0,0.5-0.2,0.5-0.5v-1.6c4.2-0.3,7.5-3.6,7.8-7.8h1.6c0.3,0,0.5-0.2,0.5-0.5c0-0.3-0.2-0.5-0.5-0.5
		h-1.6c-0.3-4.2-3.6-7.5-7.8-7.8V1.1c0-0.3-0.2-0.5-0.5-0.5C10.7,0.6,10.5,0.8,10.5,1.1L10.5,1.1z M11.5,5.3V3.7
		c3.6,0.3,6.5,3.2,6.7,6.7h-1.5c-0.3,0-0.5,0.2-0.5,0.5c0,0.3,0.2,0.5,0.5,0.5h1.5c-0.3,3.6-3.2,6.5-6.7,6.7v-1.5
		c0-0.3-0.2-0.5-0.5-0.5c-0.3,0-0.5,0.2-0.5,0.5v1.5C6.9,18,4,15.1,3.7,11.5h1.5c0.3,0,0.5-0.2,0.5-0.5c0-0.3-0.2-0.5-0.5-0.5H3.7
		C4,6.9,6.9,4,10.5,3.7v1.5c0,0.3,0.2,0.5,0.5,0.5C11.3,5.8,11.5,5.6,11.5,5.3L11.5,5.3z"/>
</g>
</svg>
