<?xml version="1.0" encoding="utf-8"?>
<!-- Generator: Adobe Illustrator 18.0.0, SVG Export Plug-In . SVG Version: 6.00 Build 0)  -->
<!DOCTYPE svg PUBLIC "-//W3C//DTD SVG 1.1//EN" "http://www.w3.org/Graphics/SVG/1.1/DTD/svg11.dtd">
<svg version="1.1" id="Layer_1" xmlns="http://www.w3.org/2000/svg" xmlns:xlink="http://www.w3.org/1999/xlink" x="0px" y="0px"
	 viewBox="0 0 40 40" style="enable-background:new 0 0 40 40;" xml:space="preserve">
<g>
	<path d="M20.5,32.2c-3.8,0-7.6-1.1-10.7-3.2c-2.2-1.6-3.9-4.5-4.4-7.7c-0.4-2.8,0.1-5.5,1.6-7.5c2.2-2.9,6.6-6,12.5-6c0,0,0,0,0,0
		c6.2,0,11.2,2.1,14.9,6.2c0.3,0.3,0.2,0.8-0.1,1.1c-0.3,0.3-0.8,0.2-1.1-0.1c-3.4-3.8-8-5.7-13.8-5.7c0,0,0,0,0,0
		c-5.3,0-9.3,2.8-11.3,5.4C7,16.4,6.6,18.6,7,21.1c0.4,2.8,1.9,5.4,3.8,6.7c5.2,3.7,13.5,3.9,18.2,0.5c2.6-1.9,3.9-4.6,3.6-7.1
		c-0.4-2.7-2.6-4.9-6.5-6.3c-0.4-0.1-0.6-0.6-0.4-1c0.1-0.4,0.6-0.6,1-0.4c5.6,2.1,7.1,5.3,7.4,7.5c0.4,3.1-1.2,6.3-4.2,8.5
		C27.3,31.3,24,32.2,20.5,32.2z"/>
</g>
</svg>
