<?xml version="1.0" encoding="utf-8"?>
<!-- Generator: Adobe Illustrator 18.0.0, SVG Export Plug-In . SVG Version: 6.00 Build 0)  -->
<!DOCTYPE svg PUBLIC "-//W3C//DTD SVG 1.1//EN" "http://www.w3.org/Graphics/SVG/1.1/DTD/svg11.dtd">
<svg version="1.1" id="Layer_1" xmlns="http://www.w3.org/2000/svg" xmlns:xlink="http://www.w3.org/1999/xlink" x="0px" y="0px"
	 viewBox="0 0 22 22" style="enable-background:new 0 0 22 22;" xml:space="preserve">
<g>
	<g>
		<g>
			<path d="M2.8,9.1C2.5,9.2,2.2,9.6,2.1,10c-0.1,0.4,0.1,0.8,0.4,1l3.6,2.6L19.1,3.5L7.7,14.8l5,3.6c0.3,0.2,0.7,0.3,1.1,0.2
				c0.4-0.1,0.7-0.4,0.8-0.8l5.3-14.5c0.1-0.1,0-0.3-0.1-0.4c-0.1-0.1-0.3-0.1-0.4-0.1L2.8,9.1z"/>
			<path d="M5.3,14.5l0,0.2l0.7,3.8c0.1,0.3,0.2,0.5,0.5,0.6c0.3,0.1,0.6,0.1,0.8-0.1c1-0.6,2.3-1.5,2.2-1.5L5.3,14.5z"/>
		</g>
	</g>
</g>
</svg>
