<?xml version="1.0" encoding="utf-8"?>
<!-- Generator: Adobe Illustrator 18.0.0, SVG Export Plug-In . SVG Version: 6.00 Build 0)  -->
<!DOCTYPE svg PUBLIC "-//W3C//DTD SVG 1.1//EN" "http://www.w3.org/Graphics/SVG/1.1/DTD/svg11.dtd">
<svg version="1.1" id="Layer_1" xmlns="http://www.w3.org/2000/svg" xmlns:xlink="http://www.w3.org/1999/xlink" x="0px" y="0px"
	 viewBox="0 0 40 128.5" style="enable-background:new 0 0 40 128.5;" xml:space="preserve">
<g>
	<g>
		<rect x="2.9" y="8" width="14.2" height="1"/>
	</g>
	<g>
		<path d="M21.5,5.2L21.5,5.2l-1.4,0.7L20,5.1l1.7-0.9h0.9V12h-1V5.2z"/>
		<path d="M25.7,8.1c0-0.7,0-1.3,0-1.9h0.9l0,1h0c0.4-0.7,1.1-1.1,2.1-1.1c1.4,0,2.5,1.2,2.5,3c0,2.1-1.3,3.1-2.6,3.1
			c-0.8,0-1.4-0.3-1.8-0.9h0v3.2h-1V8.1z M26.8,9.6c0,0.2,0,0.3,0,0.4c0.2,0.7,0.8,1.2,1.6,1.2c1.1,0,1.8-0.9,1.8-2.2
			c0-1.2-0.6-2.2-1.7-2.2c-0.7,0-1.4,0.5-1.6,1.3c0,0.1-0.1,0.3-0.1,0.4V9.6z"/>
		<path d="M32.9,6.2l0.8,1.2c0.2,0.3,0.4,0.6,0.6,0.9h0c0.2-0.3,0.4-0.6,0.6-1l0.8-1.2h1.1l-2,2.8l2,3h-1.2l-0.9-1.3
			c-0.2-0.3-0.4-0.7-0.6-1h0c-0.2,0.3-0.4,0.7-0.6,1L32.8,12h-1.2l2.1-3l-2-2.8H32.9z"/>
	</g>
	<g>
		<rect x="2.9" y="25.7" width="14.2" height="2"/>
	</g>
	<g>
		<path d="M19.2,30.2v-0.6l0.8-0.8c2-1.9,2.9-2.9,2.9-4.1c0-0.8-0.4-1.5-1.5-1.5c-0.7,0-1.3,0.4-1.7,0.7l-0.3-0.7
			c0.5-0.5,1.3-0.8,2.2-0.8c1.7,0,2.4,1.2,2.4,2.3c0,1.4-1,2.6-2.7,4.2l-0.6,0.6v0h3.5v0.9H19.2z"/>
		<path d="M25.7,26.3c0-0.7,0-1.3,0-1.9h0.9l0,1h0c0.4-0.7,1.1-1.1,2.1-1.1c1.4,0,2.5,1.2,2.5,3c0,2.1-1.3,3.1-2.6,3.1
			c-0.8,0-1.4-0.3-1.8-0.9h0v3.2h-1V26.3z M26.8,27.9c0,0.2,0,0.3,0,0.4c0.2,0.7,0.8,1.2,1.6,1.2c1.1,0,1.8-0.9,1.8-2.2
			c0-1.2-0.6-2.2-1.7-2.2c-0.7,0-1.4,0.5-1.6,1.3c0,0.1-0.1,0.3-0.1,0.4V27.9z"/>
		<path d="M32.9,24.4l0.8,1.2c0.2,0.3,0.4,0.6,0.6,0.9h0c0.2-0.3,0.4-0.6,0.6-1l0.8-1.2h1.1l-2,2.8l2,3h-1.2l-0.9-1.3
			c-0.2-0.3-0.4-0.7-0.6-1h0c-0.2,0.3-0.4,0.7-0.6,1l-0.8,1.3h-1.2l2.1-3l-2-2.8H32.9z"/>
	</g>
	<g>
		<rect x="2.9" y="43.5" width="14.2" height="3"/>
	</g>
	<g>
		<path d="M19.5,47.3c0.3,0.2,1,0.5,1.7,0.5c1.4,0,1.8-0.9,1.8-1.5c0-1.1-1-1.6-2-1.6h-0.6v-0.8H21c0.8,0,1.7-0.4,1.7-1.3
			c0-0.6-0.4-1.2-1.4-1.2c-0.6,0-1.2,0.3-1.6,0.5l-0.3-0.8c0.4-0.3,1.2-0.6,2-0.6c1.5,0,2.2,0.9,2.2,1.9c0,0.8-0.5,1.5-1.4,1.8v0
			c1,0.2,1.7,0.9,1.7,2c0,1.2-1,2.3-2.8,2.3c-0.9,0-1.6-0.3-2-0.5L19.5,47.3z"/>
		<path d="M25.7,44.6c0-0.7,0-1.3,0-1.9h0.9l0,1h0c0.4-0.7,1.1-1.1,2.1-1.1c1.4,0,2.5,1.2,2.5,3c0,2.1-1.3,3.1-2.6,3.1
			c-0.8,0-1.4-0.3-1.8-0.9h0v3.2h-1V44.6z M26.8,46.1c0,0.2,0,0.3,0,0.4c0.2,0.7,0.8,1.2,1.6,1.2c1.1,0,1.8-0.9,1.8-2.2
			c0-1.2-0.6-2.2-1.7-2.2c-0.7,0-1.4,0.5-1.6,1.3c0,0.1-0.1,0.3-0.1,0.4V46.1z"/>
		<path d="M32.9,42.7l0.8,1.2c0.2,0.3,0.4,0.6,0.6,0.9h0c0.2-0.3,0.4-0.6,0.6-1l0.8-1.2h1.1l-2,2.8l2,3h-1.2l-0.9-1.3
			c-0.2-0.3-0.4-0.7-0.6-1h0c-0.2,0.3-0.4,0.7-0.6,1l-0.8,1.3h-1.2l2.1-3l-2-2.8H32.9z"/>
	</g>
	<g>
		<rect x="2.9" y="61.2" width="14.2" height="4"/>
	</g>
	<g>
		<path d="M22.5,66.7v-2.1h-3.6v-0.7l3.5-5h1.1v4.8h1.1v0.8h-1.1v2.1H22.5z M22.5,63.8v-2.6c0-0.4,0-0.8,0-1.2h0
			c-0.2,0.5-0.4,0.8-0.6,1.2L20,63.8v0H22.5z"/>
		<path d="M25.7,62.8c0-0.7,0-1.3,0-1.9h0.9l0,1h0c0.4-0.7,1.1-1.1,2.1-1.1c1.4,0,2.5,1.2,2.5,3c0,2.1-1.3,3.1-2.6,3.1
			c-0.8,0-1.4-0.3-1.8-0.9h0v3.2h-1V62.8z M26.8,64.4c0,0.2,0,0.3,0,0.4c0.2,0.7,0.8,1.2,1.6,1.2c1.1,0,1.8-0.9,1.8-2.2
			c0-1.2-0.6-2.2-1.7-2.2c-0.7,0-1.4,0.5-1.6,1.3c0,0.1-0.1,0.3-0.1,0.4V64.4z"/>
		<path d="M32.9,60.9l0.8,1.2c0.2,0.3,0.4,0.6,0.6,0.9h0c0.2-0.3,0.4-0.6,0.6-1l0.8-1.2h1.1l-2,2.8l2,3h-1.2l-0.9-1.3
			c-0.2-0.3-0.4-0.7-0.6-1h0c-0.2,0.3-0.4,0.7-0.6,1l-0.8,1.3h-1.2l2.1-3l-2-2.8H32.9z"/>
	</g>
	<g>
		<rect x="2.9" y="79" width="14.2" height="5"/>
	</g>
	<g>
		<path d="M23.9,78.1h-3l-0.3,2c0.2,0,0.3,0,0.6,0c0.6,0,1.2,0.1,1.7,0.4c0.6,0.3,1.1,1,1.1,2c0,1.5-1.2,2.7-2.9,2.7
			c-0.9,0-1.6-0.2-1.9-0.5l0.3-0.8c0.3,0.2,1,0.4,1.7,0.4c1,0,1.8-0.6,1.8-1.7c0-1-0.7-1.7-2.2-1.7c-0.4,0-0.8,0-1.1,0.1l0.5-3.7
			h3.7V78.1z"/>
		<path d="M25.7,81.1c0-0.7,0-1.3,0-1.9h0.9l0,1h0c0.4-0.7,1.1-1.1,2.1-1.1c1.4,0,2.5,1.2,2.5,3c0,2.1-1.3,3.1-2.6,3.1
			c-0.8,0-1.4-0.3-1.8-0.9h0v3.2h-1V81.1z M26.8,82.6c0,0.2,0,0.3,0,0.4c0.2,0.7,0.8,1.2,1.6,1.2c1.1,0,1.8-0.9,1.8-2.2
			c0-1.2-0.6-2.2-1.7-2.2c-0.7,0-1.4,0.5-1.6,1.3c0,0.1-0.1,0.3-0.1,0.4V82.6z"/>
		<path d="M32.9,79.2l0.8,1.2c0.2,0.3,0.4,0.6,0.6,0.9h0c0.2-0.3,0.4-0.6,0.6-1l0.8-1.2h1.1l-2,2.8l2,3h-1.2l-0.9-1.3
			c-0.2-0.3-0.4-0.7-0.6-1h0c-0.2,0.3-0.4,0.7-0.6,1L32.8,85h-1.2l2.1-3l-2-2.8H32.9z"/>
	</g>
	<g>
		<rect x="2.9" y="96.7" width="14.2" height="6"/>
	</g>
	<g>
		<path d="M23.7,96.2c-0.2,0-0.5,0-0.8,0c-1.7,0.3-2.5,1.5-2.7,2.8h0c0.4-0.5,1-0.9,1.9-0.9c1.4,0,2.4,1,2.4,2.5
			c0,1.4-1,2.7-2.6,2.7c-1.7,0-2.8-1.3-2.8-3.3c0-1.5,0.6-2.7,1.3-3.5c0.6-0.6,1.5-1,2.5-1.2c0.3,0,0.6-0.1,0.8-0.1V96.2z
			 M23.4,100.7c0-1.1-0.6-1.8-1.6-1.8c-0.6,0-1.2,0.4-1.5,1c-0.1,0.1-0.1,0.3-0.1,0.5c0,1.3,0.6,2.2,1.7,2.2
			C22.8,102.6,23.4,101.8,23.4,100.7z"/>
		<path d="M25.7,99.3c0-0.7,0-1.3,0-1.9h0.9l0,1h0c0.4-0.7,1.1-1.1,2.1-1.1c1.4,0,2.5,1.2,2.5,3c0,2.1-1.3,3.1-2.6,3.1
			c-0.8,0-1.4-0.3-1.8-0.9h0v3.2h-1V99.3z M26.8,100.9c0,0.2,0,0.3,0,0.4c0.2,0.7,0.8,1.2,1.6,1.2c1.1,0,1.8-0.9,1.8-2.2
			c0-1.2-0.6-2.2-1.7-2.2c-0.7,0-1.4,0.5-1.6,1.3c0,0.1-0.1,0.3-0.1,0.4V100.9z"/>
		<path d="M32.9,97.4l0.8,1.2c0.2,0.3,0.4,0.6,0.6,0.9h0c0.2-0.3,0.4-0.6,0.6-1l0.8-1.2h1.1l-2,2.8l2,3h-1.2l-0.9-1.3
			c-0.2-0.3-0.4-0.7-0.6-1h0c-0.2,0.3-0.4,0.7-0.6,1l-0.8,1.3h-1.2l2.1-3l-2-2.8H32.9z"/>
	</g>
	<g>
		<rect x="2.9" y="114.5" width="14.2" height="7"/>
	</g>
	<g>
		<path d="M24.3,113.7v0.7l-3.4,7.1h-1.1l3.4-6.9v0h-3.8v-0.9H24.3z"/>
		<path d="M25.7,117.6c0-0.7,0-1.3,0-1.9h0.9l0,1h0c0.4-0.7,1.1-1.1,2.1-1.1c1.4,0,2.5,1.2,2.5,3c0,2.1-1.3,3.1-2.6,3.1
			c-0.8,0-1.4-0.3-1.8-0.9h0v3.2h-1V117.6z M26.8,119.1c0,0.2,0,0.3,0,0.4c0.2,0.7,0.8,1.2,1.6,1.2c1.1,0,1.8-0.9,1.8-2.2
			c0-1.2-0.6-2.2-1.7-2.2c-0.7,0-1.4,0.5-1.6,1.3c0,0.1-0.1,0.3-0.1,0.4V119.1z"/>
		<path d="M32.9,115.7l0.8,1.2c0.2,0.3,0.4,0.6,0.6,0.9h0c0.2-0.3,0.4-0.6,0.6-1l0.8-1.2h1.1l-2,2.8l2,3h-1.2l-0.9-1.3
			c-0.2-0.3-0.4-0.7-0.6-1h0c-0.2,0.3-0.4,0.7-0.6,1l-0.8,1.3h-1.2l2.1-3l-2-2.8H32.9z"/>
	</g>
</g>
</svg>
